PathFileType	4	(X/Y/Z)	Patient4_TMGait_0pt4_01_left_33.trc.trc
DataRate	CameraRate	NumFrames	NumMarkers	Units	OrigDataRate	OrigDataStartFrame	OrigNumFrames
72.164948453608	72.164948453608	4	33	mm	72.164948453608	106	       141
Frame#	Time	Sacral			L.Shoulder			Chest			R.Shoulder			Neck			R.ASIS			L.ASIS			R.Thigh.Superior			R.Thigh.Lateral			R.Thigh.Inferior			R.Patella			L.Thigh.Superior			L.Thigh.Lateral			L.Thigh.Inferior			L.Patella			L.Shank.Superior			L.Shank.Lateral			L.Shank.Inferior			R.Shank.Superior			R.Shank.Lateral			R.Shank.Inferior			R.Heel			R.Midfoot.Superior			R.Midfoot.Lateral			R.Toe			L.Heel			L.Midfoot.Lateral			L.Midfoot.Superior			L.Toe			L.Elbow			L.Wrist			R.Elbow			R.Wrist			
		X1	Y1	Z1	X2	Y2	Z2	X3	Y3	Z3	X4	Y4	Z4	X5	Y5	Z5	X6	Y6	Z6	X7	Y7	Z7	X8	Y8	Z8	X9	Y9	Z9	X10	Y10	Z10	X11	Y11	Z11	X12	Y12	Z12	X13	Y13	Z13	X14	Y14	Z14	X15	Y15	Z15	X16	Y16	Z16	X17	Y17	Z17	X18	Y18	Z18	X19	Y19	Z19	X20	Y20	Z20	X21	Y21	Z21	X22	Y22	Z22	X23	Y23	Z23	X24	Y24	Z24	X25	Y25	Z25	X26	Y26	Z26	X27	Y27	Z27	X28	Y28	Z28	X29	Y29	Z29	X30	Y30	Z30	X31	Y31	Z31	X32	Y32	Z32	X33	Y33	Z33	

106	42.215000000000	815.642518011355	1006.422961190982	563.245059457316	974.586482479640	1434.972818721283	367.010631495111	1091.130384343747	1370.991023839260	520.340240834128	1021.237979876863	1445.314490181469	700.079394831363	968.721708109183	1498.647070029769	524.044057221649	1052.069210909272	946.294941645972	662.011324485481	1017.917436657369	968.591332764645	389.087618421008	1075.138890158323	739.477252391672	627.998119339453	989.945291693349	634.129796448099	693.404923215212	1056.584587702949	579.260735546023	609.002504110909	1050.137189130623	494.279203764733	614.430604929652	1101.616250878095	788.136020339814	409.432107732787	1054.254755180415	660.972878022280	328.484294190571	1160.973517979075	600.757474316156	381.094019235078	1182.132075666640	523.828309073538	372.094094011434	1143.804473107344	448.793558966510	364.166911447920	1035.493125822973	351.230298101236	314.440216806743	1084.593618648574	228.157954592289	365.019216336911	1022.095791000725	404.568037423361	620.574773559672	951.293085303131	300.555446492947	683.336845569075	990.323786455046	207.039974287210	615.119073341029	855.084321455817	42.233917852981	586.104690642327	1027.163605520097	97.573913988922	614.191744027047	941.932125523288	36.146364816213	657.112001351331	1149.120028414686	46.317503127146	634.804382188770	947.487219016112	82.266253708432	403.354373893526	1015.995789460590	71.807873986666	319.917344668107	1105.475854879855	127.060031061280	340.155036064701	1224.770079999257	65.918305602599	305.057706277512	922.417030492624	1084.939646358268	252.279141570638	1032.820458605163	846.238989825514	228.718964147086	1027.668597799726	1113.383724496403	856.071518272045	1200.810719564536	920.796921527339	838.942958021173	
107	42.228857142857	815.356496267774	1006.510361002233	564.449290929773	973.793248109084	1434.998709680159	368.276003980366	1091.122773773778	1370.583611130307	520.836221788606	1022.407204801902	1444.725077285571	701.097855888939	968.929381640514	1498.384676987532	525.613066787757	1051.878189899005	945.747273504460	662.293286760853	1016.806358003651	968.454389597104	389.490119985861	1073.360357915110	738.792243633502	628.213804691583	987.470793799353	633.926720474792	693.823937412787	1053.349942883918	578.615509945718	609.267492647544	1046.263646266649	493.775352949086	614.726161249842	1098.927482618376	786.726407474635	409.600339820994	1051.025701659627	660.255039017121	328.192631495878	1156.712829271541	599.223754130986	382.241123174259	1178.868034377371	524.769210999624	373.166910220966	1144.711236789629	450.239341238358	364.119831958166	1043.601599594713	346.088771505817	312.830118675837	1100.711367306890	225.920547562367	362.954422586929	1017.919659064942	404.218242674079	620.753733254206	946.759559945041	300.384768740060	683.386954297697	985.329230675385	206.773514253901	615.124464947199	849.527367382154	42.273155248635	586.087019299554	1021.611534499315	97.400749639811	614.092403756463	936.376226922357	36.165757585641	657.095716398189	1143.592599247138	46.024095369486	634.892353171398	973.332124061279	71.301745871563	399.771733236271	1043.232989249774	64.991936182925	316.923132053518	1129.226695268182	125.528207094868	337.773539729927	1252.420823573437	71.484297243262	303.774361986421	916.087212235377	1085.580726672795	254.573785190811	1021.657375725118	844.895423354593	229.874028603148	1033.123578226632	1112.205046071172	855.905321429912	1209.458510712613	922.812372295539	835.806564507097	
108	42.242714285714	815.101016232743	1006.525121230143	565.467182007801	973.164861725148	1434.939042168818	369.310207253336	1091.141265460625	1370.142099785221	521.212882009807	1023.417709094091	1444.096850429330	701.921202126427	969.133908782944	1498.073044879601	526.919414735314	1051.759424057620	945.142878537122	662.472220828418	1015.788954480676	968.225000007551	389.805082644250	1071.843266993549	738.081784596728	628.290569595350	985.290938106449	633.667282374333	694.088912806077	1050.401895190867	577.939129445500	609.356016040786	1042.678321223588	493.214012410670	614.830124525825	1096.106274677278	784.908986430447	409.685684740788	1047.529298919072	659.297342596317	327.768587162349	1152.110970294334	597.317645708430	383.399503951682	1175.193516702913	525.381580918803	374.343180193246	1145.069734093858	451.610138752094	364.163550646697	1051.355699603254	341.480508878531	311.236139743257	1115.907082000522	224.592776916799	361.161261082499	1014.006521831957	403.818561091493	620.777831875247	942.475540323658	300.211826641072	683.362934329784	980.459117595671	206.474058745831	615.044033550870	843.974601775159	42.327299666362	586.071572193995	1016.088233681048	97.238184402252	614.009327105618	930.827617339284	36.196004337841	657.077973306622	1138.078697786711	45.688891614486	634.974059797683	998.149861818280	62.335556114561	396.379014664834	1069.457102916049	59.688783307572	314.363386800813	1151.879368893935	125.028651005954	335.870301119419	1278.458870148255	77.630665670305	303.523286490669	910.271421570957	1086.144899847838	256.728385715933	1010.651761766778	843.468855745842	231.025842122895	1038.108636956184	1110.944071299467	855.336477114854	1217.962790556509	925.276312550559	832.158889476927	
109	42.256571428571	814.869037227960	1006.492986969165	566.320240949837	972.672801698173	1434.831717386064	370.113957037549	1091.178296619177	1369.696693354988	521.454947364747	1024.286990358719	1443.464382192345	702.546386799374	969.320956029534	1497.745457239883	527.953005913510	1051.714808767159	944.510220286099	662.523995756745	1014.840737010855	967.960110765078	390.005491417248	1070.566549930138	737.360700645032	628.201654484848	983.387252896157	633.361583760179	694.179344823409	1047.727148124169	577.240598566800	609.255770202778	1039.372329003508	492.601049410024	614.733014720425	1093.260496783946	782.889253699222	409.682064985848	1043.946791500495	658.224429617603	327.259566099635	1147.453580033872	595.275390654361	384.470409796757	1171.384119395889	525.802315653956	375.546081214720	1145.044870652767	452.941972932800	364.292668218184	1058.624732522478	337.559134480143	309.781790297380	1129.872890113167	224.174083405342	359.751585035921	1010.335890287985	403.375723415364	620.642338866242	938.421504077745	300.050514376939	683.265959400737	975.703443863799	206.154530820947	614.882354999935	838.427937876679	42.398566601824	586.062239847356	1010.598727987352	97.098631199164	613.955194824595	925.286412712868	36.237354154502	657.060485610220	1132.577538826932	45.319935229678	635.048049442182	1021.294727127541	55.476462696596	393.414640427315	1093.989433595201	55.924202277419	312.416741286841	1172.888621129963	125.508852369323	334.557929529201	1302.313705043470	84.146452045262	304.306913879898	905.017854364926	1086.648612790777	258.710958402065	999.873714616318	841.996287175594	232.170514336780	1042.612467777098	1109.629445930127	854.365706125863	1226.278895496742	928.249369028372	828.012349839865	
